<svg width="20" height="17" viewBox="0 0 20 17" fill="none" xmlns="http://www.w3.org/2000/svg">
<g opacity="0.8">
<path d="M19.1666 0.8501C18.3686 1.42426 17.4851 1.86339 16.55 2.1506C16.0481 1.56198 15.3811 1.14479 14.6392 0.955437C13.8973 0.766086 13.1162 0.813716 12.4017 1.09189C11.6872 1.37005 11.0737 1.86534 10.6441 2.51076C10.2146 3.15618 9.98973 3.92059 9.99998 4.7006V5.5506C8.53551 5.58933 7.08437 5.25804 5.77582 4.58623C4.46727 3.91442 3.34191 2.92294 2.49998 1.7001C2.49998 1.7001 -0.833354 9.3501 6.66665 12.7501C4.95042 13.9384 2.90594 14.5342 0.833313 14.4501C8.33331 18.7001 17.5 14.4501 17.5 4.6751C17.4992 4.43834 17.4769 4.20216 17.4333 3.9696C18.2838 3.11407 18.884 2.03391 19.1666 0.8501V0.8501Z" stroke="white" stroke-width="1.5" stroke-linecap="round" stroke-linejoin="round"/>
</g>
</svg>
