<svg width="86" height="14" viewBox="0 0 86 14" fill="none" xmlns="http://www.w3.org/2000/svg">
<path d="M6.88892 0.904785L8.74292 4.85431L12.8889 5.49154L9.88892 8.56409L10.5969 12.9048L6.88892 10.8543L3.18092 12.9048L3.88892 8.56409L0.888916 5.49154L5.03492 4.85431L6.88892 0.904785Z" fill="#F2994A"/>
<path d="M24.8889 0.904785L26.7429 4.85431L30.8889 5.49154L27.8889 8.56409L28.5969 12.9048L24.8889 10.8543L21.1809 12.9048L21.8889 8.56409L18.8889 5.49154L23.0349 4.85431L24.8889 0.904785Z" fill="#F2994A"/>
<path d="M42.8889 0.904785L44.7429 4.85431L48.8889 5.49154L45.8889 8.56409L46.5969 12.9048L42.8889 10.8543L39.1809 12.9048L39.8889 8.56409L36.8889 5.49154L41.0349 4.85431L42.8889 0.904785Z" fill="#F2994A"/>
<path d="M60.8889 0.904785L62.7429 4.85431L66.8889 5.49154L63.8889 8.56409L64.5969 12.9048L60.8889 10.8543L57.1809 12.9048L57.8889 8.56409L54.8889 5.49154L59.0349 4.85431L60.8889 0.904785Z" fill="#F2994A"/>
<path d="M78.8889 0.904785L80.7429 4.85431L84.8889 5.49154L81.8889 8.56409L82.5969 12.9048L78.8889 10.8543L75.1809 12.9048L75.8889 8.56409L72.8889 5.49154L77.0349 4.85431L78.8889 0.904785Z" fill="white" stroke="#F2994A" stroke-linecap="round" stroke-linejoin="round"/>
</svg>
