<svg width="18" height="20" viewBox="0 0 18 20" fill="none" xmlns="http://www.w3.org/2000/svg">
<path d="M3.5999 0.909092L0.899902 4.54546V17.2727C0.899902 17.7549 1.08954 18.2174 1.42711 18.5584C1.76468 18.8994 2.22251 19.0909 2.6999 19.0909H15.2999C15.7773 19.0909 16.2351 18.8994 16.5727 18.5584C16.9103 18.2174 17.0999 17.7549 17.0999 17.2727V4.54546L14.3999 0.909092H3.5999Z" stroke="#1D2123" stroke-width="1.5" stroke-linecap="round" stroke-linejoin="round"/>
<path d="M0.899902 4.54546H17.0999" stroke="#1D2123" stroke-width="1.5" stroke-linecap="round" stroke-linejoin="round"/>
<path d="M12.5999 8.18182C12.5999 9.14624 12.2206 10.0712 11.5455 10.7531C10.8704 11.4351 9.95468 11.8182 8.9999 11.8182C8.04512 11.8182 7.12945 11.4351 6.45432 10.7531C5.77919 10.0712 5.3999 9.14624 5.3999 8.18182" stroke="#1D2123" stroke-width="1.5" stroke-linecap="round" stroke-linejoin="round"/>
</svg>
