<svg width="18" height="20" viewBox="0 0 18 20" fill="none" xmlns="http://www.w3.org/2000/svg">
<path d="M0.900391 4.54544H2.70039H17.1004" stroke="#828282" stroke-width="1.5" stroke-linecap="round" stroke-linejoin="round"/>
<path d="M5.4002 4.54545V2.72727C5.4002 2.24506 5.58984 1.7826 5.9274 1.44162C6.26497 1.10065 6.72281 0.909088 7.2002 0.909088H10.8002C11.2776 0.909088 11.7354 1.10065 12.073 1.44162C12.4106 1.7826 12.6002 2.24506 12.6002 2.72727V4.54545M15.3002 4.54545V17.2727C15.3002 17.7549 15.1106 18.2174 14.773 18.5584C14.4354 18.8993 13.9776 19.0909 13.5002 19.0909H4.5002C4.02281 19.0909 3.56497 18.8993 3.2274 18.5584C2.88984 18.2174 2.7002 17.7549 2.7002 17.2727V4.54545H15.3002Z" stroke="#828282" stroke-width="1.5" stroke-linecap="round" stroke-linejoin="round"/>
<path d="M7.2002 9.09091V14.5455" stroke="#828282" stroke-width="1.5" stroke-linecap="round" stroke-linejoin="round"/>
<path d="M10.7998 9.09091V14.5455" stroke="#828282" stroke-width="1.5" stroke-linecap="round" stroke-linejoin="round"/>
</svg>
